<?xml version="1.0" encoding="UTF-8"?>
<svg xmlns="http://www.w3.org/2000/svg" xmlns:xlink="http://www.w3.org/1999/xlink" width="75pt" height="74.999997pt" viewBox="0 0 75 74.999997" version="1.2">
<defs>
<clipPath id="clip1">
  <path d="M 22.5 22.5 L 52.5 22.5 L 52.5 52.5 L 22.5 52.5 Z M 22.5 22.5 "/>
</clipPath>
</defs>
<g id="surface1">
<g clip-path="url(#clip1)" clip-rule="nonzero">
<path style=" stroke:none;fill-rule:nonzero;fill:rgb(100%,87.838745%,67.449951%);fill-opacity:1;" d="M 37.5 22.535156 C 29.222656 22.535156 22.5 29.257812 22.5 37.535156 C 22.5 45.046875 28.042969 51.265625 35.257812 52.347656 L 36.042969 52.46875 L 36.042969 40.648438 L 32.5 40.648438 L 32.5 38.246094 L 36.042969 38.246094 L 36.042969 35.0625 C 36.042969 33.097656 36.511719 31.804688 37.292969 30.996094 C 38.070312 30.183594 39.222656 29.777344 40.828125 29.777344 C 42.109375 29.777344 42.605469 29.851562 43.082031 29.910156 L 43.082031 31.875 L 41.414062 31.875 C 40.464844 31.875 39.6875 32.402344 39.285156 33.109375 C 38.882812 33.8125 38.757812 34.652344 38.757812 35.507812 L 38.757812 38.246094 L 42.933594 38.246094 L 42.558594 40.644531 L 38.757812 40.644531 L 38.757812 52.484375 L 39.53125 52.382812 C 46.851562 51.386719 52.5 45.121094 52.5 37.535156 C 52.5 29.257812 45.777344 22.535156 37.5 22.535156 Z M 37.5 23.898438 C 45.039062 23.898438 51.136719 29.996094 51.136719 37.535156 C 51.136719 44.167969 46.386719 49.625 40.121094 50.851562 L 40.121094 42.011719 L 43.730469 42.011719 L 44.523438 36.882812 L 40.121094 36.882812 L 40.121094 35.507812 C 40.121094 34.800781 40.25 34.167969 40.46875 33.785156 C 40.6875 33.40625 40.898438 33.238281 41.414062 33.238281 L 44.445312 33.238281 L 44.445312 28.675781 L 43.851562 28.597656 C 43.445312 28.542969 42.511719 28.410156 40.828125 28.410156 C 38.984375 28.410156 37.402344 28.914062 36.308594 30.050781 C 35.21875 31.1875 34.679688 32.878906 34.679688 35.0625 L 34.679688 36.882812 L 31.132812 36.882812 L 31.132812 42.011719 L 34.679688 42.011719 L 34.679688 50.808594 C 28.511719 49.503906 23.863281 44.097656 23.863281 37.535156 C 23.863281 29.996094 29.960938 23.898438 37.5 23.898438 Z M 37.5 23.898438 "/>
</g>
</g>
</svg>
