<?xml version="1.0" encoding="UTF-8"?>
<svg xmlns="http://www.w3.org/2000/svg" xmlns:xlink="http://www.w3.org/1999/xlink" width="75pt" height="74.999997pt" viewBox="0 0 75 74.999997" version="1.2">
<defs>
<clipPath id="clip1">
  <path d="M 24.425781 22.5 L 54.425781 22.5 L 54.425781 52.5 L 24.425781 52.5 Z M 24.425781 22.5 "/>
</clipPath>
</defs>
<g id="surface1">
<g clip-path="url(#clip1)" clip-rule="nonzero">
<path style=" stroke:none;fill-rule:nonzero;fill:rgb(100%,87.838745%,67.449951%);fill-opacity:1;" d="M 33.289062 22.5 C 28.402344 22.5 24.425781 26.476562 24.425781 31.363281 L 24.425781 43.636719 C 24.425781 48.523438 28.402344 52.5 33.289062 52.5 L 45.558594 52.5 C 50.449219 52.5 54.425781 48.523438 54.425781 43.636719 L 54.425781 31.363281 C 54.425781 26.476562 50.449219 22.5 45.558594 22.5 Z M 33.289062 23.863281 L 45.558594 23.863281 C 49.710938 23.863281 53.058594 27.214844 53.058594 31.363281 L 53.058594 43.636719 C 53.058594 47.785156 49.710938 51.136719 45.558594 51.136719 L 33.289062 51.136719 C 29.136719 51.136719 25.789062 47.785156 25.789062 43.636719 L 25.789062 31.363281 C 25.789062 27.214844 29.136719 23.863281 33.289062 23.863281 Z M 47.605469 27.953125 C 47.425781 27.953125 47.25 27.988281 47.085938 28.058594 C 46.917969 28.128906 46.769531 28.226562 46.640625 28.355469 C 46.515625 28.480469 46.414062 28.628906 46.347656 28.796875 C 46.277344 28.964844 46.242188 29.136719 46.242188 29.316406 C 46.242188 29.5 46.277344 29.671875 46.347656 29.839844 C 46.414062 30.007812 46.515625 30.15625 46.640625 30.28125 C 46.769531 30.410156 46.917969 30.507812 47.085938 30.578125 C 47.25 30.648438 47.425781 30.683594 47.605469 30.683594 C 47.785156 30.683594 47.960938 30.648438 48.128906 30.578125 C 48.292969 30.507812 48.441406 30.410156 48.570312 30.28125 C 48.699219 30.15625 48.796875 30.007812 48.867188 29.839844 C 48.933594 29.671875 48.96875 29.5 48.96875 29.316406 C 48.96875 29.136719 48.933594 28.964844 48.867188 28.796875 C 48.796875 28.628906 48.699219 28.480469 48.570312 28.355469 C 48.441406 28.226562 48.292969 28.128906 48.128906 28.058594 C 47.960938 27.988281 47.785156 27.953125 47.605469 27.953125 Z M 39.425781 30 C 35.289062 30 31.925781 33.367188 31.925781 37.5 C 31.925781 41.632812 35.289062 45 39.425781 45 C 43.558594 45 46.925781 41.632812 46.925781 37.5 C 46.925781 33.367188 43.558594 30 39.425781 30 Z M 39.425781 31.363281 C 42.820312 31.363281 45.558594 34.101562 45.558594 37.5 C 45.558594 40.898438 42.820312 43.636719 39.425781 43.636719 C 36.027344 43.636719 33.289062 40.898438 33.289062 37.5 C 33.289062 34.101562 36.027344 31.363281 39.425781 31.363281 Z M 39.425781 31.363281 "/>
</g>
</g>
</svg>
